<svg xmlns="http://www.w3.org/2000/svg" width="94" height="42" fill="none" viewBox="0 0 94 42">
  <path fill="#1A3352" d="M21.51 28.353c-4.063 0-7.355-3.29-7.355-7.344 0-4.053 3.292-7.344 7.354-7.344 4.063 0 7.355 3.291 7.355 7.344 0 4.053-3.292 7.344-7.355 7.344zm0-14.353c-3.856 0-6.998 3.142-6.998 6.99 0 3.85 3.142 6.991 6.997 6.991 3.856 0 6.997-3.142 6.997-6.99 0-3.849-3.14-6.991-6.997-6.991zm0-1.878c.996 0 1.937.223 2.82.558.189.074.358.13.546.204l.508.224c.884.409 1.712.93 2.389 1.617.677.688 1.204 1.506 1.617 2.399l.226.502c.075.167.15.353.207.539.32.892.545 1.84.545 2.844 0 1.004-.225 1.934-.545 2.826-.075.186-.132.354-.207.54-.075.167-.15.353-.226.52-.413.874-.921 1.71-1.617 2.399-.677.687-1.505 1.208-2.389 1.617l-.508.223c-.17.075-.357.149-.527.205-.884.334-1.843.557-2.84.557-.997 0-1.937-.223-2.82-.539-.189-.074-.358-.13-.546-.204l-.508-.223c-.884-.41-1.712-.93-2.389-1.618-.677-.688-1.204-1.506-1.617-2.398l-.226-.502a4.613 4.613 0 01-.207-.54c-.32-.892-.546-1.84-.546-2.844 0-1.004.226-1.934.546-2.826.075-.186.132-.353.207-.54.075-.167.15-.353.226-.52.413-.874.921-1.71 1.617-2.398.677-.688 1.524-1.209 2.389-1.618l.508-.223c.169-.074.357-.149.526-.205.903-.353 1.843-.576 2.84-.576zm0 .446c-.922 0-1.806.205-2.653.521-.188.074-.376.13-.545.204-.17.075-.358.15-.527.224-.827.39-1.617.873-2.257 1.524-.64.632-1.128 1.413-1.523 2.25-.075.167-.15.334-.226.52-.075.168-.15.354-.207.54-.3.836-.526 1.729-.526 2.658 0 .93.206 1.804.507 2.64.075.186.132.372.207.54.075.167.15.353.226.52.395.837.884 1.618 1.523 2.25.64.632 1.411 1.134 2.258 1.524.169.075.338.15.507.223.17.075.358.15.546.205.846.297 1.73.52 2.67.52.922 0 1.806-.204 2.653-.52.188-.074.376-.13.545-.205.17-.074.358-.148.527-.223.827-.39 1.617-.873 2.257-1.524.64-.65 1.128-1.413 1.523-2.25.075-.167.15-.334.226-.52.075-.186.15-.354.207-.54.3-.836.526-1.729.526-2.658 0-.93-.206-1.822-.507-2.64-.075-.186-.132-.372-.207-.54-.075-.167-.15-.353-.226-.52-.395-.837-.884-1.618-1.523-2.25-.64-.632-1.411-1.134-2.258-1.524-.169-.075-.338-.15-.507-.223a4.72 4.72 0 00-.546-.205c-.846-.316-1.73-.52-2.67-.52zm0-1.952c1.165 0 2.256.316 3.29.707.208.074.415.167.622.26.206.093.395.167.601.26 1.035.465 2.032 1.023 2.84 1.822.81.8 1.355 1.804 1.825 2.826.094.205.17.39.263.595.095.205.17.41.245.614.395 1.041.715 2.12.715 3.29 0 1.172-.32 2.25-.715 3.273-.075.204-.17.428-.245.632-.075.205-.169.41-.263.595-.47 1.041-1.034 2.027-1.824 2.826-.81.8-1.806 1.357-2.84 1.822-.189.093-.396.167-.602.26-.207.093-.414.168-.621.242-1.034.39-2.125.707-3.292.707-1.166 0-2.257-.317-3.291-.707a8.806 8.806 0 01-.62-.26c-.208-.075-.396-.168-.603-.26-1.034-.465-2.031-1.023-2.84-1.823-.809-.799-1.354-1.803-1.824-2.826-.094-.204-.17-.39-.264-.595a8.312 8.312 0 01-.244-.613c-.395-1.041-.715-2.12-.715-3.29 0-1.172.32-2.25.696-3.273.075-.205.17-.428.245-.632.075-.205.169-.41.263-.595.47-1.041 1.034-2.027 1.824-2.826.81-.8 1.806-1.357 2.84-1.822.207-.093.396-.168.602-.26.207-.094.414-.168.621-.242 1.053-.39 2.144-.707 3.31-.707zm0 .502c-1.073 0-2.107.298-3.085.67a9.227 9.227 0 00-.64.26c-.207.093-.413.167-.602.26-.978.446-1.918.967-2.67 1.71-.734.744-1.28 1.692-1.712 2.66-.094.204-.17.408-.263.594a6.33 6.33 0 00-.245.632c-.376.986-.677 2.008-.677 3.087 0 1.078.3 2.1.658 3.067.076.224.17.428.264.633.094.204.169.409.263.613.432.986.978 1.915 1.711 2.659.734.743 1.693 1.264 2.671 1.71.207.093.395.168.602.26.207.094.414.168.621.26.978.373 2.013.67 3.085.67s2.106-.297 3.084-.67c.207-.074.433-.166.64-.26.207-.092.413-.167.602-.26.978-.446 1.918-.966 2.67-1.71.734-.744 1.28-1.692 1.712-2.659.094-.204.17-.409.263-.595.094-.204.17-.409.245-.632.376-.967.677-2.008.677-3.086 0-1.079-.3-2.101-.658-3.068-.075-.223-.17-.428-.264-.632-.094-.205-.169-.41-.263-.614-.433-.985-.978-1.915-1.712-2.658-.733-.744-1.692-1.265-2.67-1.71-.207-.094-.395-.168-.602-.261-.207-.093-.414-.168-.621-.26-.96-.372-1.994-.67-3.085-.67zm0-2.026c1.335 0 2.576.39 3.742.855.245.093.47.186.715.297.226.093.47.186.696.298 1.185.52 2.351 1.115 3.273 2.045.921.911 1.523 2.082 2.05 3.272.094.223.188.465.282.688.094.242.188.465.282.707.47 1.171.865 2.417.865 3.755 0 1.339-.395 2.566-.865 3.737-.094.242-.188.484-.3.725-.095.224-.189.465-.302.688-.526 1.19-1.128 2.343-2.05 3.273-.921.91-2.088 1.524-3.273 2.045-.225.093-.451.204-.695.297-.226.093-.47.205-.715.298-1.185.464-2.408.874-3.762.874-1.335 0-2.577-.39-3.743-.856-.245-.093-.47-.186-.715-.297-.225-.093-.47-.186-.696-.298-1.185-.52-2.35-1.115-3.272-2.045-.922-.91-1.524-2.082-2.05-3.272-.095-.223-.189-.465-.283-.688-.094-.242-.188-.465-.282-.706-.47-1.172-.865-2.418-.865-3.756 0-1.339.395-2.566.865-3.737.094-.242.188-.484.301-.707.094-.223.188-.465.301-.688.527-1.19 1.129-2.342 2.05-3.272.922-.91 2.088-1.524 3.273-2.045.226-.093.451-.205.696-.298.226-.092.47-.185.715-.297 1.185-.483 2.426-.892 3.761-.892zm0 .576c-1.223 0-2.39.372-3.518.818-.244.093-.489.205-.733.297-.226.094-.47.205-.696.298-1.129.483-2.238 1.06-3.085 1.915-.846.837-1.41 1.952-1.918 3.068-.095.223-.207.465-.301.688-.094.241-.207.483-.301.725-.433 1.115-.828 2.287-.828 3.514 0 1.227.376 2.398.809 3.495.094.242.188.483.3.725.095.242.189.465.302.707.489 1.115 1.072 2.23 1.918 3.067.847.856 1.956 1.413 3.085 1.915.226.093.47.205.696.298.244.093.47.204.715.297 1.11.447 2.275.818 3.517.818 1.222 0 2.388-.371 3.517-.818.244-.093.49-.204.734-.297.225-.093.47-.205.696-.298 1.128-.502 2.238-1.06 3.084-1.915.846-.836 1.41-1.952 1.919-3.067.094-.223.206-.465.3-.688.095-.242.207-.484.301-.725.433-1.116.828-2.287.828-3.514 0-1.227-.376-2.399-.809-3.496a11.834 11.834 0 00-.3-.725 11.371 11.371 0 00-.302-.706c-.489-1.116-1.072-2.231-1.918-3.068-.846-.837-1.956-1.413-3.085-1.915-.225-.093-.47-.204-.696-.297-.244-.093-.47-.205-.714-.298-1.11-.428-2.276-.818-3.518-.818zm0-2.082c1.504 0 2.877.483 4.194 1.022.263.112.545.223.808.335l.79.335c1.336.576 2.671 1.227 3.706 2.25 1.034 1.04 1.674 2.36 2.257 3.7.113.26.226.52.32.78.112.26.225.52.338.8.546 1.32 1.016 2.695 1.016 4.201 0 1.506-.49 2.882-1.016 4.202-.113.279-.226.54-.338.8-.113.26-.226.52-.32.78-.564 1.34-1.223 2.678-2.257 3.7-1.035 1.041-2.37 1.692-3.706 2.25-.263.112-.526.223-.77.316a35.51 35.51 0 01-.81.335c-1.316.539-2.69 1.022-4.213 1.022-1.504 0-2.877-.483-4.194-1.022-.263-.112-.545-.223-.809-.335l-.79-.335c-1.335-.576-2.67-1.208-3.705-2.25-1.034-1.04-1.674-2.36-2.257-3.7-.113-.26-.226-.52-.32-.78-.113-.26-.226-.54-.338-.8-.546-1.32-1.016-2.695-1.016-4.201 0-1.506.489-2.882 1.016-4.202.112-.279.225-.54.338-.8.113-.26.207-.52.32-.78.564-1.34 1.223-2.678 2.257-3.7 1.035-1.042 2.37-1.674 3.705-2.25.264-.112.527-.223.772-.316.263-.112.526-.223.808-.335 1.336-.539 2.709-1.022 4.213-1.022zm0 .65c-1.392 0-2.69.465-3.932.967-.282.112-.545.223-.808.335l-.79.335c-1.28.539-2.54 1.152-3.48 2.1-.96.949-1.561 2.213-2.107 3.496l-.338.78c-.113.261-.226.54-.339.819-.508 1.245-.978 2.566-.978 3.941 0 1.376.452 2.678.96 3.942.112.279.225.539.338.818l.339.78c.545 1.265 1.166 2.53 2.106 3.496.94.948 2.22 1.562 3.48 2.101l.79.335c.263.111.545.223.809.334 1.26.502 2.558.967 3.95.967 1.391 0 2.69-.465 3.93-.967.283-.111.546-.223.81-.334l.79-.335c1.278-.54 2.538-1.153 3.498-2.1.94-.95 1.56-2.213 2.106-3.478l.339-.78c.113-.26.226-.54.338-.819.508-1.245.978-2.565.978-3.941s-.451-2.677-.959-3.942c-.113-.279-.226-.539-.338-.818l-.339-.78c-.545-1.265-1.166-2.53-2.107-3.496-.94-.948-2.219-1.562-3.48-2.1l-.79-.336c-.263-.111-.545-.223-.808-.334-1.26-.54-2.577-.986-3.969-.986zm0-2.175c1.673 0 3.197.576 4.664 1.171.3.13.602.26.884.372.282.112.583.242.865.353 1.486.633 2.99 1.32 4.138 2.473 1.148 1.153 1.843 2.659 2.464 4.146.113.28.245.577.357.874.132.298.245.595.377.893.602 1.468 1.185 2.974 1.185 4.666 0 1.674-.565 3.198-1.185 4.648-.132.298-.245.595-.377.893-.112.279-.244.576-.357.874-.62 1.487-1.316 2.993-2.464 4.146-1.147 1.152-2.652 1.84-4.138 2.472-.282.112-.583.242-.865.354-.3.13-.583.242-.884.372-1.467.613-2.99 1.17-4.665 1.17-1.674 0-3.197-.575-4.664-1.17-.301-.13-.602-.242-.884-.372-.282-.13-.583-.242-.865-.354-1.486-.632-2.991-1.32-4.138-2.472-1.148-1.153-1.844-2.659-2.464-4.146-.113-.298-.245-.577-.358-.874-.131-.298-.244-.595-.376-.893-.602-1.468-1.185-2.974-1.185-4.666 0-1.674.564-3.198 1.185-4.648.132-.298.245-.595.376-.893.113-.297.245-.576.358-.874.62-1.487 1.316-2.993 2.464-4.146 1.147-1.152 2.652-1.84 4.138-2.473.282-.13.583-.241.865-.353.3-.13.583-.241.884-.372 1.467-.595 2.99-1.17 4.664-1.17zm0 .725c-1.543 0-2.972.54-4.364 1.116-.301.13-.602.26-.903.372-.301.13-.583.241-.884.371-1.41.595-2.84 1.246-3.893 2.306-1.054 1.06-1.712 2.473-2.314 3.904a17.07 17.07 0 00-.357.874c-.132.298-.245.595-.377.911-.583 1.395-1.128 2.826-1.128 4.37 0 1.524.545 2.974 1.11 4.368.131.298.244.614.376.912.113.297.244.576.357.873.602 1.413 1.242 2.845 2.314 3.905 1.053 1.06 2.483 1.71 3.893 2.305.301.13.583.242.884.372.301.13.602.26.903.372 1.392.576 2.84 1.115 4.382 1.115 1.543 0 2.972-.539 4.364-1.115.301-.13.602-.26.903-.372.3-.13.583-.242.884-.372 1.41-.595 2.84-1.245 3.893-2.305 1.054-1.06 1.712-2.473 2.314-3.905.131-.297.244-.576.357-.873.132-.298.245-.595.376-.893.583-1.394 1.129-2.826 1.129-4.37 0-1.524-.546-2.974-1.11-4.368a18.737 18.737 0 01-.376-.911c-.113-.298-.245-.595-.357-.874-.602-1.413-1.242-2.845-2.314-3.905-1.053-1.06-2.483-1.71-3.893-2.305-.301-.13-.583-.242-.884-.372-.301-.13-.602-.242-.903-.372-1.392-.595-2.84-1.134-4.383-1.134zm0-2.23c1.843 0 3.517.65 5.115 1.338.339.13.659.279.978.409l.96.39c1.655.67 3.31 1.413 4.589 2.678 1.26 1.264 2.013 2.937 2.67 4.573l.396.948c.131.317.282.651.414.986.677 1.599 1.335 3.272 1.335 5.113 0 1.84-.658 3.514-1.335 5.113-.132.334-.282.65-.414.985-.132.316-.264.632-.395.967-.677 1.636-1.41 3.31-2.671 4.573-1.26 1.265-2.934 2.009-4.59 2.678l-.959.39c-.32.13-.64.28-.978.41-1.598.669-3.272 1.338-5.116 1.338-1.843 0-3.517-.65-5.116-1.339-.338-.148-.658-.279-.978-.409l-.959-.39c-1.655-.67-3.31-1.413-4.59-2.678-1.26-1.264-2.012-2.937-2.67-4.573l-.395-.948c-.132-.317-.282-.651-.414-.986-.677-1.599-1.335-3.272-1.335-5.113 0-1.84.658-3.514 1.335-5.113.132-.334.282-.65.414-.985a51.4 51.4 0 00.395-.967c.677-1.636 1.41-3.31 2.67-4.573 1.261-1.265 2.935-2.008 4.59-2.678l.96-.39c.32-.13.658-.28.977-.41 1.6-.687 3.273-1.338 5.116-1.338zm0 .78c-1.693 0-3.273.632-4.797 1.264-.338.149-.658.28-.997.428-.32.13-.64.26-.978.39-1.56.651-3.16 1.339-4.307 2.492-1.147 1.152-1.843 2.77-2.502 4.332-.131.316-.263.65-.395.966-.131.335-.282.651-.413.986-.64 1.524-1.28 3.105-1.28 4.797 0 1.692.621 3.272 1.26 4.797.151.334.283.669.415.985.131.316.263.65.395.967.64 1.562 1.335 3.16 2.501 4.313 1.166 1.153 2.746 1.86 4.326 2.492l.96.39c.32.13.658.279.996.427 1.524.651 3.104 1.265 4.797 1.265 1.692 0 3.272-.632 4.796-1.265.338-.148.658-.278.997-.427.32-.13.64-.26.978-.39 1.56-.651 3.16-1.34 4.307-2.492 1.166-1.153 1.862-2.751 2.502-4.313.131-.316.263-.651.395-.967.131-.335.282-.65.413-.985.64-1.525 1.28-3.105 1.28-4.797 0-1.692-.621-3.273-1.26-4.797-.151-.335-.283-.67-.415-.985-.131-.317-.263-.651-.395-.967-.64-1.562-1.335-3.161-2.501-4.314-1.166-1.152-2.746-1.859-4.326-2.491l-.96-.39c-.32-.13-.658-.28-.996-.428-1.524-.65-3.104-1.283-4.797-1.283zm0-2.305c2.012 0 3.818.743 5.567 1.487.357.149.714.316 1.072.446.338.149.696.279 1.053.428 1.806.725 3.63 1.506 5.022 2.882 1.392 1.375 2.163 3.216 2.897 5.02.15.353.282.706.432 1.04l.452 1.06c.752 1.748 1.486 3.552 1.486 5.578 0 2.008-.753 3.83-1.486 5.56l-.452 1.059c-.15.353-.282.688-.432 1.041-.734 1.804-1.505 3.626-2.897 5.02-1.392 1.376-3.216 2.157-5.022 2.882-.357.149-.696.279-1.053.428l-1.072.446c-1.75.743-3.555 1.487-5.568 1.487-2.012 0-3.818-.744-5.567-1.487-.357-.149-.715-.316-1.072-.447-.339-.148-.696-.278-1.053-.427-1.806-.725-3.63-1.506-5.022-2.882-1.392-1.376-2.163-3.216-2.897-5.02-.15-.353-.282-.706-.432-1.041l-.452-1.06c-.752-1.747-1.486-3.55-1.486-5.578 0-2.007.753-3.83 1.486-5.559.15-.353.301-.725.452-1.06.15-.353.282-.687.432-1.04.734-1.804 1.505-3.626 2.897-5.02 1.392-1.376 3.216-2.157 5.022-2.882.357-.149.695-.28 1.053-.428l1.072-.446c1.75-.744 3.555-1.487 5.567-1.487zm0 .873c-1.844 0-3.556.707-5.23 1.413-.357.15-.733.316-1.09.465-.358.149-.715.28-1.054.428-1.711.688-3.46 1.431-4.72 2.696-1.26 1.264-1.994 3.012-2.69 4.722-.15.353-.282.707-.433 1.06-.15.353-.3.725-.451 1.078-.715 1.655-1.43 3.384-1.43 5.225 0 1.84.715 3.55 1.43 5.224.15.372.32.725.451 1.079.15.353.282.706.433 1.06.696 1.71 1.43 3.457 2.69 4.722 1.26 1.264 3.009 2.008 4.72 2.696.358.148.715.279 1.054.427.357.149.714.298 1.09.465 1.656.706 3.386 1.413 5.23 1.413 1.843 0 3.554-.706 5.228-1.413.358-.149.734-.316 1.091-.465.357-.148.715-.279 1.053-.427 1.712-.688 3.461-1.432 4.721-2.696 1.26-1.265 1.994-3.012 2.69-4.723.15-.353.282-.706.433-1.06.15-.353.3-.725.451-1.078.715-1.655 1.43-3.384 1.43-5.224 0-1.84-.715-3.551-1.411-5.225-.15-.372-.32-.725-.47-1.078-.15-.353-.282-.707-.433-1.06-.696-1.71-1.43-3.458-2.69-4.722-1.26-1.265-3.009-2.008-4.72-2.696-.358-.149-.715-.28-1.054-.428a48.103 48.103 0 01-1.09-.465c-1.656-.706-3.386-1.413-5.23-1.413zm0-2.38c2.181 0 4.137.837 6.037 1.655.395.168.771.335 1.166.502.376.149.752.316 1.129.465 1.956.781 3.968 1.599 5.454 3.105 1.505 1.506 2.333 3.514 3.104 5.466.15.372.3.762.451 1.134.15.39.32.762.49 1.153.808 1.896 1.654 3.849 1.654 6.024s-.827 4.127-1.655 6.024c-.17.39-.338.78-.489 1.152-.15.372-.3.763-.451 1.135-.79 1.952-1.6 3.96-3.104 5.447-1.505 1.506-3.517 2.324-5.454 3.105-.377.149-.753.298-1.129.465-.376.167-.771.335-1.147.502-1.881.818-3.856 1.655-6.038 1.655-2.182 0-4.138-.837-6.037-1.655-.395-.167-.772-.335-1.166-.502-.377-.149-.753-.316-1.13-.465-1.955-.78-3.949-1.599-5.454-3.105-1.504-1.506-2.313-3.514-3.103-5.466-.15-.372-.301-.762-.451-1.134-.15-.39-.32-.762-.49-1.153-.827-1.896-1.655-3.848-1.655-6.024 0-2.175.828-4.146 1.655-6.024.17-.39.34-.78.49-1.152.15-.372.3-.763.45-1.135.79-1.952 1.6-3.96 3.104-5.466 1.505-1.506 3.518-2.324 5.455-3.105.376-.148.752-.297 1.129-.464.376-.168.77-.335 1.147-.502 1.9-.818 3.856-1.636 6.037-1.636zm0 .93c-1.994 0-3.856.8-5.643 1.562-.395.167-.79.335-1.166.502-.377.149-.771.316-1.148.465-1.862.743-3.78 1.524-5.135 2.9-1.373 1.357-2.144 3.272-2.896 5.132-.15.39-.301.762-.47 1.152l-.508 1.172c-.771 1.803-1.58 3.662-1.58 5.652 0 1.99.79 3.848 1.58 5.652l.508 1.171c.15.372.32.762.47 1.153.752 1.859 1.523 3.774 2.896 5.131 1.374 1.358 3.273 2.157 5.135 2.9.377.15.771.317 1.148.466.395.167.77.334 1.166.502 1.805.78 3.668 1.58 5.661 1.58 1.994 0 3.856-.8 5.643-1.562.395-.167.79-.335 1.166-.502.376-.149.771-.316 1.147-.465 1.862-.743 3.78-1.524 5.135-2.9 1.373-1.357 2.144-3.272 2.897-5.132.15-.39.3-.762.47-1.152l.508-1.172c.77-1.803 1.58-3.662 1.58-5.652 0-1.99-.79-3.848-1.58-5.652l-.508-1.171c-.15-.372-.32-.762-.47-1.153-.753-1.859-1.524-3.774-2.897-5.131-1.373-1.358-3.273-2.138-5.135-2.9-.376-.15-.77-.317-1.147-.465-.395-.168-.771-.335-1.166-.502-1.806-.781-3.668-1.58-5.662-1.58zm0 39.546c-2.352 0-4.458-.911-6.49-1.803a35.79 35.79 0 00-1.241-.54c-.414-.167-.809-.334-1.223-.502-2.106-.836-4.288-1.691-5.906-3.309-1.617-1.618-2.482-3.793-3.31-5.894-.17-.409-.32-.818-.489-1.227-.17-.409-.357-.818-.527-1.246C1.422 25.453.5 23.352.5 20.991c0-2.361.922-4.444 1.806-6.47.188-.428.357-.837.526-1.246.17-.41.339-.818.49-1.227.827-2.101 1.692-4.276 3.31-5.894 1.617-1.617 3.799-2.473 5.906-3.31.413-.167.827-.334 1.222-.501.414-.168.828-.354 1.242-.54C17.052.911 19.158 0 21.509 0S25.967.911 28 1.803c.413.186.827.372 1.24.54.415.167.81.334 1.223.502 2.107.836 4.289 1.692 5.906 3.309 1.618 1.618 2.483 3.793 3.31 5.894.17.409.32.818.49 1.227.169.409.357.818.526 1.246.884 2.026 1.806 4.127 1.806 6.488 0 2.361-.922 4.444-1.806 6.489-.188.409-.357.837-.526 1.246-.17.409-.339.818-.49 1.227-.827 2.1-1.692 4.276-3.31 5.893-1.617 1.618-3.799 2.473-5.906 3.31-.413.167-.827.316-1.222.502-.414.167-.828.353-1.242.54C25.968 41.07 23.86 42 21.51 42zm0-40.996c-2.145 0-4.139.874-6.076 1.73-.432.185-.846.37-1.26.538l-1.241.502c-2.013.8-4.082 1.618-5.568 3.087-1.467 1.468-2.294 3.55-3.084 5.559-.17.409-.339.836-.508 1.245-.17.428-.358.837-.546 1.265-.846 1.933-1.73 3.941-1.73 6.08 0 2.137.884 4.145 1.73 6.079.188.428.376.837.546 1.264.169.41.338.818.508 1.246.79 2.008 1.617 4.09 3.084 5.559 1.467 1.469 3.555 2.287 5.549 3.086l1.241.502c.414.168.847.354 1.26.54 1.938.855 3.931 1.729 6.076 1.729 2.144 0 4.137-.874 6.075-1.73.432-.185.846-.371 1.26-.539l1.241-.502c2.013-.8 4.082-1.617 5.549-3.086 1.467-1.469 2.295-3.551 3.085-5.56.169-.408.338-.836.508-1.245.169-.427.357-.836.545-1.264.846-1.934 1.73-3.942 1.73-6.08s-.884-4.146-1.73-6.08c-.188-.427-.376-.836-.545-1.264-.17-.409-.34-.818-.508-1.245-.79-2.008-1.618-4.09-3.085-5.56-1.467-1.468-3.555-2.286-5.549-3.086l-1.241-.502a36.645 36.645 0 01-1.26-.539c-1.9-.837-3.912-1.729-6.057-1.729zM50.403 14.667h-4.221V12.27h2.42a1.933 1.933 0 001.801-1.915V5.297h2.87v6.972h4.785v2.398h-4.784V30.49c0 2.752.92 3.868 3.396 3.868.6 0 1.257-.093 1.632-.186v2.435c-.6.13-1.444.223-2.139.223-4.034 0-5.76-1.803-5.76-6.302v-15.86zM85.475 11.75c-3.563 0-6.212 1.785-7.76 4.853-1.213-3.124-3.955-4.853-7.275-4.853-2.836 0-5.111 1.302-6.846 3.7H63.5v-3.18h-2.984v24.412H63.5V22.608c0-5.001 2.612-8.255 6.51-8.255 3.47 0 5.504 2.454 5.504 6.637V36.7h2.985V22.237c0-4.704 2.555-7.883 6.51-7.883 3.47 0 5.503 1.822 5.503 7.4V36.7h2.985V21.567c-.019-6.545-2.873-9.817-8.022-9.817z"/>
</svg>
