<svg xmlns="http://www.w3.org/2000/svg" viewBox="0 0 200 200" fill="none">
  <!--
    Cubic easing: ratio stays near 0.552 (circle) for inner rings,
    accelerates to 0.900 only in the outer 3-4 rings.
    formula: ratio = 0.552 + 0.348 * ((a-18)/72)^3
    stroke 3, gap 3, a: 90→18 step 6.
  -->

  <!-- ring 0  a=90  r=0.900  o=81.0 -->
  <path stroke="#a78844" stroke-width="3" d="M100 10 C181 10,190 19,190 100 C190 181,181 190,100 190 C19 190,10 181,10 100 C10 19,19 10,100 10Z"/>

  <!-- ring 1  a=84  r=0.820  o=68.9 -->
  <path stroke="#a78844" stroke-width="3" d="M100 16 C168.9 16,184 31.1,184 100 C184 168.9,168.9 184,100 184 C31.1 184,16 168.9,16 100 C16 31.1,31.1 16,100 16Z"/>

  <!-- ring 2  a=78  r=0.754  o=58.8 -->
  <path stroke="#a78844" stroke-width="3" d="M100 22 C158.8 22,178 41.2,178 100 C178 158.8,158.8 178,100 178 C41.2 178,22 158.8,22 100 C22 41.2,41.2 22,100 22Z"/>

  <!-- ring 3  a=72  r=0.699  o=50.3 -->
  <path stroke="#a78844" stroke-width="3" d="M100 28 C150.3 28,172 49.7,172 100 C172 150.3,150.3 172,100 172 C49.7 172,28 150.3,28 100 C28 49.7,49.7 28,100 28Z"/>

  <!-- ring 4  a=66  r=0.655  o=43.2 -->
  <path stroke="#a78844" stroke-width="3" d="M100 34 C143.2 34,166 56.8,166 100 C166 143.2,143.2 166,100 166 C56.8 166,34 143.2,34 100 C34 56.8,56.8 34,100 34Z"/>

  <!-- ring 5  a=60  r=0.621  o=37.3 -->
  <path stroke="#a78844" stroke-width="3" d="M100 40 C137.3 40,160 62.7,160 100 C160 137.3,137.3 160,100 160 C62.7 160,40 137.3,40 100 C40 62.7,62.7 40,100 40Z"/>

  <!-- ring 6  a=54  r=0.596  o=32.2 -->
  <path stroke="#a78844" stroke-width="3" d="M100 46 C132.2 46,154 67.8,154 100 C154 132.2,132.2 154,100 154 C67.8 154,46 132.2,46 100 C46 67.8,67.8 46,100 46Z"/>

  <!-- ring 7  a=48  r=0.577  o=27.7 -->
  <path stroke="#a78844" stroke-width="3" d="M100 52 C127.7 52,148 72.3,148 100 C148 127.7,127.7 148,100 148 C72.3 148,52 127.7,52 100 C52 72.3,72.3 52,100 52Z"/>

  <!-- ring 8  a=42  r=0.565  o=23.7 -->
  <path stroke="#a78844" stroke-width="3" d="M100 58 C123.7 58,142 76.3,142 100 C142 123.7,123.7 142,100 142 C76.3 142,58 123.7,58 100 C58 76.3,76.3 58,100 58Z"/>

  <!-- ring 9  a=36  r=0.558  o=20.1 -->
  <path stroke="#a78844" stroke-width="3" d="M100 64 C120.1 64,136 79.9,136 100 C136 120.1,120.1 136,100 136 C79.9 136,64 120.1,64 100 C64 79.9,79.9 64,100 64Z"/>

  <!-- ring 10  a=30  r=0.554  o=16.6 -->
  <path stroke="#a78844" stroke-width="3" d="M100 70 C116.6 70,130 83.4,130 100 C130 116.6,116.6 130,100 130 C83.4 130,70 116.6,70 100 C70 83.4,83.4 70,100 70Z"/>

  <!-- ring 11  a=24  r=0.552  o=13.2 -->
  <path stroke="#a78844" stroke-width="3" d="M100 76 C113.2 76,124 86.8,124 100 C124 113.2,113.2 124,100 124 C86.8 124,76 113.2,76 100 C76 86.8,86.8 76,100 76Z"/>

  <!-- ring 12  a=18  r=0.552  o=9.9  → perfect circle -->
  <path stroke="#a78844" stroke-width="3" d="M100 82 C109.9 82,118 90.1,118 100 C118 109.9,109.9 118,100 118 C90.1 118,82 109.9,82 100 C82 90.1,90.1 82,100 82Z"/>
</svg>
